<svg height="20" width="100" xmlns:xlink="http://www.w3.org/1999/xlink" xmlns="http://www.w3.org/2000/svg"
  viewBox="0 0 100 20"> <path fill="#526d84" fill-rule="evenodd" d="M 57.24 15.82
  L 57.24 1.15 L 54.32 4.11 L 54.32 18.77 L 61.76 18.77 L 64.67 15.82 L 57.24 15.82
  Z M 57.24 15.82" /> <path fill="#526d84" fill-rule="evenodd" d="M 48.47 18.78 L
  48.47 4.11 L 51.39 1.15 L 51.39 15.82 L 48.47 18.78 Z M 48.47 18.78" /> <path fill="#526d84"
  fill-rule="evenodd" d="M 45.77 16 L 45.77 4.14 C 45.77 1.93 43.73 0.14 41.22 0.14
  C 40.08 0.14 39 0.62 38.24 1.46 C 38.07 1.59 37.08 2.52 37.02 2.58 C 36.31 1.11
  34.66 0.14 32.84 0.14 C 31.71 0.14 30.63 0.61 29.88 1.44 C 29.88 1.44 26.73 4.38
  26.5 4.71 L 26.4 4.87 C 26.02 5.49 25.81 6.2 25.81 6.95 C 25.81 6.95 25.8 18.87
  25.81 18.86 L 25.81 19 C 25.81 19 29.06 16.01 29.06 15.95 L 29.06 4.14 C 29.06 3.83
  29.1 3.53 29.18 3.23 C 29.38 3.2 29.59 3.18 29.82 3.18 C 32.21 3.18 34.15 4.87 34.15
  6.95 L 34.15 19 C 34.15 19 37.39 16.01 37.39 15.95 L 37.39 4.22 C 37.42 4.2 37.48
  3.53 37.55 3.23 C 37.75 3.2 37.96 3.18 38.19 3.18 C 40.58 3.18 42.53 4.87 42.53
  6.95 L 42.53 19.02 L 45.77 16 Z M 45.77 16" /> <path fill="#526d84" fill-rule="evenodd"
  d="M 85.25 3.44 C 84.9 1.59 83.04 0.25 80.83 0.25 C 79.92 0.25 79.09 0.56 78.43
  1.08 C 78.23 1.19 75.47 3.65 75.32 3.82 C 74.38 4.57 73.83 5.68 73.81 6.88 C 73.81
  6.93 73.77 8.99 73.77 8.99 L 73.2 8.99 L 70.29 11.95 L 73.77 11.95 L 73.77 11.97
  L 73.77 11.97 L 73.77 13.28 L 73.77 19 C 73.77 19 77.06 16.01 77.06 15.95 L 77.06
  11.95 L 82.14 11.95 L 82.14 19.11 L 85.25 16.2 L 85.25 3.44 Z M 77.06 8.99 L 77.06
  3.73 C 77.06 3.73 77.12 3.41 77.16 3.23 C 77.36 3.2 77.58 3.18 77.8 3.18 C 80.2
  3.18 82.14 4.87 82.14 6.95 L 82.14 8.99 L 77.06 8.99 Z M 77.06 8.99" /> <path fill="#526d84"
  fill-rule="evenodd" d="M 66.38 18.78 L 66.38 4.11 L 69.3 1.15 L 69.3 15.82 L 66.38
  18.78 Z M 66.38 18.78" /> <path fill="#526d84" fill-rule="evenodd" d="M 95.32 0.26
  C 95.16 0.26 95 0.27 94.84 0.29 C 94.79 0.29 94.74 0.3 94.69 0.31 C 94.59 0.32 94.48
  0.34 94.38 0.36 C 94.32 0.37 94.26 0.38 94.21 0.4 C 94.11 0.42 94.02 0.45 93.92
  0.48 C 93.87 0.5 93.81 0.51 93.75 0.53 C 93.66 0.57 93.57 0.6 93.48 0.64 C 93.43
  0.66 93.37 0.69 93.31 0.71 C 93.23 0.75 93.15 0.8 93.06 0.85 C 93.01 0.88 92.95
  0.9 92.9 0.94 C 92.82 0.98 92.75 1.03 92.67 1.09 C 92.54 1.18 92.41 1.28 92.28 1.39
  C 92.25 1.41 92.19 1.46 92.19 1.47 C 92.15 1.5 91.08 2.57 90.95 2.72 C 90.94 2.73
  90.93 2.74 90.91 2.75 L 90.92 0.99 L 87.71 4.19 L 87.7 19 L 90.9 15.8 L 90.91 12.34
  C 90.97 12.36 91.04 12.39 91.11 12.41 L 96.41 18.57 L 99.29 15.67 L 95.6 11.37 C
  95.63 11.34 98.3 8.64 98.3 8.64 C 98.3 8.64 98.58 8.31 98.62 8.25 C 98.68 8.2 98.73
  8.13 98.79 8.07 C 98.79 8.07 98.79 8.07 98.79 8.07 C 98.82 8.04 98.84 8.02 98.86
  7.99 C 99.16 7.65 99.4 7.27 99.58 6.86 C 99.59 6.84 99.6 6.82 99.61 6.8 C 99.66
  6.68 99.71 6.56 99.75 6.43 C 99.76 6.4 99.77 6.37 99.78 6.33 C 99.82 6.22 99.85
  6.11 99.87 5.99 C 99.88 5.95 99.89 5.91 99.9 5.87 C 99.92 5.75 99.94 5.63 99.96
  5.51 C 99.96 5.48 99.97 5.44 99.97 5.41 C 99.99 5.25 100 5.1 100 4.94 L 100 4.94
  L 100 4.94 C 100 2.36 97.9 0.26 95.32 0.26 M 96.66 9.19 C 96.23 9.33 95.78 9.4 95.32
  9.4 C 95.2 9.4 95.09 9.39 94.98 9.38 C 92.75 9.19 90.98 7.35 90.91 5.08 L 90.91
  4.84 C 90.92 4.44 90.98 4.05 91.09 3.67 C 91.52 3.54 91.97 3.46 92.44 3.46 C 92.55
  3.46 92.66 3.47 92.78 3.48 C 95.05 3.68 96.85 5.59 96.85 7.92 C 96.85 8.36 96.78
  8.78 96.66 9.19" /> <path fill="#526d84" fill-rule="evenodd" d="M 3.07 8.99 L 3.07
  4.11 L 7.56 4.11 L 10.47 1.15 L 3.03 1.15 L 0 4.11 L 0 4.11 L 0 4.11 L 0 12 L 0
  12.07 L 0 12.09 L 0 12.19 L 0 18.78 L 3.07 15.82 L 3.07 11.9 L 5.85 11.9 L 8.76
  9.11 L 3.07 9.11 L 3.07 8.99 Z M 3.07 8.99" /> <path fill="#526d84" fill-rule="evenodd"
  d="M 23.7 3.44 C 23.36 1.59 21.5 0.25 19.28 0.25 C 18.37 0.25 17.54 0.56 16.88 1.08
  C 16.69 1.19 13.93 3.65 13.78 3.82 C 12.83 4.57 12.28 5.68 12.26 6.88 C 12.26 6.93
  12.23 8.99 12.23 8.99 L 11.65 8.99 L 8.74 11.95 L 12.23 11.95 L 12.23 11.97 L 12.23
  11.97 L 12.23 13.28 L 12.23 19 C 12.23 19 15.52 16.01 15.52 15.95 L 15.52 11.95
  L 20.6 11.95 L 20.6 19.11 L 23.7 16.2 L 23.7 3.44 Z M 15.52 8.99 L 15.52 3.73 C
  15.52 3.73 15.58 3.41 15.62 3.23 C 15.82 3.2 16.03 3.18 16.26 3.18 C 18.65 3.18
  20.6 4.87 20.6 6.95 L 20.6 8.99 L 15.52 8.99 Z M 15.52 8.99" />
</svg>
